Land_normalized_Motion_pl09
version=1
nRows=12
nColumns=43
inDegrees=yes
endheader
time		pelvis_tilt		pelvis_list		pelvis_rotation		pelvis_tx		pelvis_ty		pelvis_tz		hip_flexion_r		hip_adduction_r		hip_rotation_r		knee_angle_r		ankle_angle_r		subtalar_angle_r		mtp_angle_r		hip_flexion_l		hip_adduction_l		hip_rotation_l		knee_angle_l		ankle_angle_l		subtalar_angle_l		mtp_angle_l		lumbar_extension		lumbar_bending		lumbar_rotation		neck_flexion		neck_lateral_bending		neck_rotation		arm_flex_r		arm_add_r		arm_rot_r		elbow_flex_r		pro_sup_r		wrist_flex_r		wrist_dev_r		hand_finger_flex_r		arm_flex_l		arm_add_l		arm_rot_l		elbow_flex_l		pro_sup_l		wrist_flex_l		wrist_dev_l		hand_finger_flex_l		
1.307500		-2.894400		20.990966		90.863966		0.015123		1.024015		0.613028		4.550693		-4.033903		-14.652395		-19.546654		-27.760355		-2.929755		19.661394		3.227929		-3.669857		-11.389452		-18.243821		-25.703658		-11.580429		32.021413		-46.568539		-9.538949		-8.303089		-39.763844		1.752228		5.723996		-77.507842		-21.369498		-31.118697		44.021524		90.605837		1.326412		15.493109		37.659274		-72.988040		-18.454014		-23.123414		57.876529		114.187594		-36.515839		-2.145278		83.097716		
1.310202		-2.926144		21.321997		91.042340		0.014727		1.013348		0.609790		4.775702		-4.215427		-14.325628		-21.042950		-27.903526		-3.155850		19.660880		3.555872		-3.699501		-11.244338		-19.671658		-25.668350		-11.758622		32.045412		-47.230207		-9.397356		-8.439333		-38.975773		1.733347		5.594632		-76.287391		-21.424754		-30.705889		43.404452		91.149461		0.700600		15.566897		37.448404		-71.897509		-18.544811		-23.149756		56.995339		114.151027		-36.555969		-2.036520		83.086205		
1.312904		-3.007203		21.345030		91.326794		0.014206		1.002015		0.606789		5.472198		-4.422397		-13.788397		-22.775502		-28.107354		-3.836108		19.584207		4.360422		-3.638574		-10.702177		-21.324333		-25.731571		-12.151537		32.017963		-47.601383		-9.242478		-8.591098		-38.273577		1.716536		5.317024		-75.103076		-21.343540		-30.179231		42.962038		92.156054		-0.647474		15.322079		37.053828		-70.823240		-18.630628		-23.371806		56.306083		114.159810		-36.763387		-2.173384		83.131482		
1.315606		-3.046332		21.637378		91.538661		0.013712		0.991114		0.603736		5.847407		-4.599896		-13.388641		-24.457278		-28.278032		-4.202587		19.534003		4.832179		-3.642506		-10.490411		-22.964167		-25.873411		-12.372705		31.985502		-48.256933		-9.065419		-8.723309		-37.416729		1.686841		5.160864		-73.875636		-21.417825		-29.635876		42.531663		92.722579		-1.280649		15.299000		36.867588		-69.655488		-18.783213		-23.387298		55.526280		114.226503		-36.784079		-2.186795		83.121952		
1.318308		-3.098105		21.730724		91.793065		0.013056		0.979765		0.600897		6.551273		-4.766143		-12.780090		-26.314996		-28.322066		-4.825457		19.456462		5.621781		-3.583910		-9.989236		-24.757353		-26.066916		-12.744153		31.904151		-48.725871		-8.864120		-8.854014		-36.630310		1.641640		4.905816		-72.679600		-21.470603		-28.962523		42.223177		93.493567		-2.266321		15.044860		36.611088		-68.466242		-18.920006		-23.509725		54.873641		114.391499		-36.877141		-2.394585		83.143716		
1.321010		-3.103127		21.951387		91.993708		0.012451		0.968541		0.598064		7.128064		-4.874774		-12.155845		-28.219862		-27.865410		-4.994434		19.524132		6.280831		-3.587035		-9.658690		-26.618112		-26.053943		-12.950153		31.865797		-49.328288		-8.643257		-8.943402		-35.745161		1.627964		4.724723		-71.471847		-21.608204		-28.271996		41.975233		93.933464		-2.765423		14.900483		36.512498		-67.228917		-19.112739		-23.498998		54.216275		114.604274		-36.885633		-2.520531		83.161800		
1.323712		-3.094984		22.058372		92.208107		0.011934		0.957043		0.595404		7.911085		-4.906791		-11.304879		-30.290477		-26.880526		-5.144183		19.677491		7.126383		-3.573501		-9.129127		-28.596211		-25.779160		-13.228541		31.832708		-49.847778		-8.411598		-9.038419		-34.754111		1.585941		4.495679		-70.219948		-21.754520		-27.455553		41.777871		94.398155		-3.343981		14.644269		36.420492		-65.956068		-19.320693		-23.510787		53.585914		114.906009		-36.918780		-2.735865		83.209091		
1.326414		-3.058952		22.029397		92.406448		0.011400		0.945186		0.592800		8.903730		-4.901995		-10.364845		-32.552757		-24.913863		-4.561137		20.050572		8.180444		-3.582605		-8.644030		-30.755870		-24.841405		-13.244106		31.842139		-50.223545		-8.166215		-9.095046		-33.757521		1.596714		4.288452		-68.973645		-21.950432		-26.537405		41.618523		94.560033		-3.714121		14.321400		36.491147		-64.629223		-19.577356		-23.464963		52.939499		115.330397		-36.963183		-2.971490		83.333264		
1.329116		-2.991527		21.809761		92.605155		0.010984		0.932787		0.590230		10.192742		-4.815186		-9.273393		-35.109349		-21.827583		-3.515887		20.575512		9.508080		-3.592951		-8.026070		-33.119660		-23.033807		-13.131303		31.816405		-50.393132		-7.910171		-9.132752		-32.763941		1.538740		4.032437		-67.756646		-22.188165		-25.402793		41.531759		94.505593		-4.139527		13.851564		36.728774		-63.329362		-19.849763		-23.438994		52.374363		115.904736		-37.082289		-3.305901		83.588538		
1.331818		-2.887839		21.824133		92.775164		0.010519		0.920740		0.587696		11.163861		-4.643243		-8.258536		-37.647366		-18.075050		-2.413850		21.103575		10.578010		-3.625296		-7.417355		-35.595254		-20.489784		-12.957209		31.808791		-50.811749		-7.614024		-9.131415		-31.706435		1.510181		3.789672		-66.537802		-22.465146		-24.346954		41.543308		94.288592		-4.368505		13.538957		37.003346		-62.007233		-20.165591		-23.288026		51.903701		116.374322		-37.210518		-3.504062		83.827380		
1.334520		-2.752034		21.965441		92.930679		0.010172		0.908782		0.585088		11.978426		-4.400093		-7.389170		-40.288440		-13.658616		-1.430869		21.624780		11.506133		-3.678323		-6.799574		-38.187324		-17.207158		-12.950128		31.845544		-51.337931		-7.297983		-9.097408		-30.688358		1.385693		3.554305		-65.341465		-22.739810		-23.368674		41.665272		94.020967		-4.429979		13.273395		37.230427		-60.777249		-20.536393		-23.052016		51.629787		116.784605		-37.358415		-3.676404		84.018926		
1.337222		-2.640439		21.869781		93.175742		0.009490		0.896463		0.582639		13.059037		-4.268377		-6.715705		-43.013438		-8.891665		0.210569		21.823753		12.767887		-3.679860		-6.154413		-40.976919		-13.270447		-12.393422		31.577736		-51.681556		-6.923629		-9.099710		-29.483862		1.400692		3.286618		-64.034260		-23.053435		-22.203849		41.660625		93.392883		-4.545993		12.928561		37.542104		-59.307153		-20.942888		-22.718507		51.115902		117.289813		-37.636933		-3.852906		84.299831		
